<svg width="26" height="26" viewBox="0 0 26 26" fill="none" xmlns="http://www.w3.org/2000/svg">
<g clip-path="url(#clip0_33_35625)">
<path fill-rule="evenodd" clip-rule="evenodd" d="M5.48375 25.7087H19.5934C22.6029 25.7087 25.0771 23.2962 25.0771 20.348V5.974C25.0771 3.02584 22.6029 0.579895 19.5934 0.579895H5.48375C2.47418 0.579895 0 2.99242 0 5.974V20.348C0 23.2962 2.47418 25.7087 5.48375 25.7087Z" fill="#E75F35"/>
<path fill-rule="evenodd" clip-rule="evenodd" d="M7.89039 9.66006V6.1754C7.89039 4.63448 6.75379 3.86314 5.58296 3.86314C4.41214 3.86314 3.24219 4.6336 3.24219 6.1754V20.1475C3.24219 21.6884 4.41214 22.4597 5.58296 22.4597C6.75379 22.4597 7.89039 21.6893 7.89039 20.1475V16.6628C7.89039 15.0542 10.2312 15.0542 10.2312 16.6628V20.1475C10.2312 21.6884 11.3678 22.4597 12.5386 22.4597C13.7094 22.4597 14.8794 21.6893 14.8794 20.1475V16.6628C14.8794 15.0542 17.1868 15.0542 17.1868 16.6628V20.1475C17.1868 21.6884 18.3567 22.4597 19.4942 22.4597C20.6317 22.4597 21.835 21.6893 21.835 20.1475V6.1754C21.835 4.63448 20.665 3.86314 19.4942 3.86314C18.3234 3.86314 17.1868 4.6336 17.1868 6.1754V9.66006C17.1868 11.2687 14.8794 11.2687 14.8794 9.66006V6.1754C14.8794 4.63448 13.7094 3.86314 12.5386 3.86314C11.3678 3.86314 10.2312 4.6336 10.2312 6.1754V9.66006C10.2312 11.2687 7.89039 11.2687 7.89039 9.66006Z" fill="white"/>
</g>
<defs>
<clipPath id="clip0_33_35625">
<rect width="25.0762" height="25.1288" fill="white" transform="translate(0 0.579895)"/>
</clipPath>
</defs>
</svg>
